<svg xmlns="http://www.w3.org/2000/svg" width="160" height="96" viewBox="0 0 160 96">
  <path fill="#F6F6F4" fill-rule="evenodd" d="M4.17443857e-14,74.6654 L4.17443857e-14,-0.0006 L10.666,-0.0006 L10.666,74.6654 L4.17443857e-14,74.6654 Z M20,74.6654 L20,31.9994 L30.666,31.9994 L30.666,74.6654 L20,74.6654 Z M20,21.3334 L20,10.6654 L30.666,10.6654 L30.666,21.3334 L20,21.3334 Z M39.9996,16 C39.9996,7.164 47.1636,-7.10542736e-14 55.9996,-7.10542736e-14 L61.3336,-7.10542736e-14 L61.3336,10.666 L55.9996,10.666 C53.0536,10.666 50.6656,13.054 50.6656,16 L50.6656,32 L61.3336,32 L61.3336,42.666 L50.6656,42.666 L50.6656,74.666 L39.9996,74.666 L39.9996,16 Z M90.6646,42.664 L90.6646,37.332 C90.6646,34.386 88.2766,31.998 85.3306,31.998 C82.3866,31.998 79.9986,34.386 79.9986,37.332 L79.9986,42.664 L90.6646,42.664 Z M85.3306,21.334 C94.1666,21.334 101.3306,28.496 101.3306,37.332 L101.3306,53.33 L79.9986,53.33 L79.9986,58.662 C79.9986,61.608 82.3866,63.996 85.3306,63.996 L90.6646,63.996 L90.6646,74.662 L85.3306,74.662 C76.4966,74.662 69.3326,67.498 69.3326,58.662 L69.3326,37.332 C69.3326,28.496 76.4966,21.334 85.3306,21.334 Z M109.334,74.6654 L109.334,-0.0006 L120,-0.0006 L120,74.6654 L109.334,74.6654 Z M149.3336,21.334 L159.9996,21.334 L159.9996,53.334 L159.9996,58.666 L159.9996,80 C159.9996,88.836 152.8356,96 143.9996,96 L138.6676,96 L138.6676,85.332 L143.9996,85.332 C146.9456,85.332 149.3336,82.946 149.3336,80 L149.3336,73.736 C147.6636,74.328 145.8736,74.666 143.9996,74.666 C135.1636,74.666 127.9996,67.502 127.9996,58.666 L127.9996,21.334 L138.6676,21.334 L138.6676,58.666 C138.6676,61.612 141.0536,64 143.9996,64 C146.9456,64 149.3336,61.612 149.3336,58.666 L149.3336,53.334 L149.3336,21.334 Z"/>
</svg>
